<svg overflow="visible" style="display: block;" viewBox="0 0 187.366 46" fill="none" xmlns="http://www.w3.org/2000/svg">
<g id="logo-2">
<path id="Vector" d="M54.5576 32.3067H67.9672V28.2677H59.3237V13.054H54.5576V32.3067Z" fill="var(--fill-0, white)" fill-opacity="0.16"/>
<path id="Vector_2" d="M75.913 29.6108C74.0012 29.6108 73.0049 27.9414 73.0049 25.4372C73.0049 22.933 74.0012 21.2366 75.913 21.2366C77.8248 21.2366 78.8481 22.933 78.8481 25.4372C78.8481 27.9414 77.8248 29.6108 75.913 29.6108ZM75.94 32.7344C80.3829 32.7344 83.291 29.5839 83.291 25.4372C83.291 21.2905 80.3829 18.14 75.94 18.14C71.524 18.14 68.562 21.2905 68.562 25.4372C68.562 29.5839 71.524 32.7344 75.94 32.7344Z" fill="var(--fill-0, white)" fill-opacity="0.16"/>
<path id="Vector_3" d="M90.9813 37.0684C93.0277 37.0684 94.8318 36.6107 96.0435 35.5336C97.1475 34.5373 97.8745 33.0294 97.8745 30.956V18.5158H93.674V19.9968H93.6201C92.8123 18.839 91.5737 18.1119 89.7426 18.1119C86.3229 18.1119 83.9534 20.9662 83.9534 25.0052C83.9534 29.2327 86.8345 31.5484 89.9311 31.5484C91.6006 31.5484 92.6507 30.8753 93.4585 29.9597H93.5662V31.333C93.5662 33.0025 92.7854 33.9718 90.9274 33.9718C89.4734 33.9718 88.7463 33.3525 88.504 32.6255H84.2496C84.6804 35.5067 87.1846 37.0684 90.9813 37.0684ZM90.9543 28.2903C89.3118 28.2903 88.2347 26.9439 88.2347 24.8706C88.2347 22.7703 89.3118 21.4239 90.9543 21.4239C92.7854 21.4239 93.7547 22.9857 93.7547 24.8436C93.7547 26.7824 92.8661 28.2903 90.9543 28.2903Z" fill="var(--fill-0, white)" fill-opacity="0.16"/>
<path id="Vector_4" d="M106.516 29.6108C104.604 29.6108 103.608 27.9414 103.608 25.4372C103.608 22.933 104.604 21.2366 106.516 21.2366C108.428 21.2366 109.451 22.933 109.451 25.4372C109.451 27.9414 108.428 29.6108 106.516 29.6108ZM106.543 32.7344C110.986 32.7344 113.894 29.5839 113.894 25.4372C113.894 21.2905 110.986 18.14 106.543 18.14C102.127 18.14 99.165 21.2905 99.165 25.4372C99.165 29.5839 102.127 32.7344 106.543 32.7344Z" fill="var(--fill-0, white)" fill-opacity="0.16"/>
<path id="Vector_5" d="M115.174 32.3067H119.563V18.5202H115.174V32.3067ZM115.174 16.6084H119.563V13.054H115.174V16.6084Z" fill="var(--fill-0, white)" fill-opacity="0.16"/>
<path id="Vector_6" d="M121.469 36.853H125.858V30.8753H125.912C126.773 32.0331 128.039 32.7332 129.816 32.7332C133.424 32.7332 135.821 29.879 135.821 25.4091C135.821 21.2624 133.586 18.1119 129.924 18.1119C128.039 18.1119 126.693 18.9467 125.75 20.1853H125.669V18.5158H121.469V36.853ZM128.685 29.3404C126.8 29.3404 125.723 27.8056 125.723 25.5707C125.723 23.3357 126.693 21.6394 128.604 21.6394C130.489 21.6394 131.378 23.2011 131.378 25.5707C131.378 27.9133 130.355 29.3404 128.685 29.3404Z" fill="var(--fill-0, white)" fill-opacity="0.16"/>
<path id="Vector_7" d="M142.964 32.7332C146.572 32.7332 149.238 31.1715 149.238 28.1556C149.238 24.6282 146.384 24.0089 143.96 23.605C142.21 23.2819 140.648 23.1473 140.648 22.1779C140.648 21.3162 141.483 20.9123 142.56 20.9123C143.772 20.9123 144.607 21.2893 144.768 22.5279H148.807C148.592 19.8083 146.491 18.1119 142.587 18.1119C139.329 18.1119 136.636 19.6198 136.636 22.5279C136.636 25.7592 139.194 26.4054 141.591 26.8093C143.422 27.1324 145.091 27.2671 145.091 28.5057C145.091 29.3943 144.257 29.879 142.937 29.879C141.483 29.879 140.568 29.2058 140.406 27.8325H136.259C136.394 30.8753 138.925 32.7332 142.964 32.7332Z" fill="var(--fill-0, white)" fill-opacity="0.16"/>
<path id="Vector_8" d="M155.2 32.7067C157.112 32.7067 158.324 31.9527 159.32 30.6064H159.401V32.3028H163.602V18.5162H159.212V26.2173C159.212 27.8598 158.297 28.9908 156.789 28.9908C155.389 28.9908 154.716 28.156 154.716 26.6481V18.5162H150.354V27.5636C150.354 30.6333 152.023 32.7067 155.2 32.7067Z" fill="var(--fill-0, white)" fill-opacity="0.16"/>
<path id="Vector_9" d="M165.509 32.3024H169.898V24.5744C169.898 22.9318 170.706 21.774 172.079 21.774C173.399 21.774 174.018 22.6356 174.018 24.1166V32.3024H178.407V24.5744C178.407 22.9318 179.188 21.774 180.588 21.774C181.907 21.774 182.527 22.6356 182.527 24.1166V32.3024H186.916V23.3357C186.916 20.2392 185.354 18.1119 182.231 18.1119C180.453 18.1119 178.972 18.8659 177.895 20.5354H177.842C177.141 19.0544 175.768 18.1119 173.964 18.1119C171.971 18.1119 170.652 19.0544 169.79 20.4815H169.71V18.5158H165.509V32.3024Z" fill="var(--fill-0, white)" fill-opacity="0.16"/>
<path id="Vector_10" fill-rule="evenodd" clip-rule="evenodd" d="M9.70805 4.36512C8.10292 5.48748 6.65145 6.81446 5.39144 8.30825C10.5404 7.83022 17.082 8.61079 24.6767 12.4082C32.7868 16.4631 39.3175 16.6002 43.8625 15.7235C43.4501 14.4749 42.9309 13.2749 42.3159 12.1341C37.1131 12.6828 30.4431 11.9565 22.6698 8.06993C17.7336 5.60186 13.3825 4.58518 9.70805 4.36512ZM39.2767 7.80814C35.168 3.21751 29.197 0.328491 22.5513 0.328491C20.5996 0.328491 18.706 0.577684 16.9008 1.04596C19.3458 1.71307 21.9431 2.68906 24.6767 4.05591C30.3679 6.90147 35.2814 7.81769 39.2767 7.80814ZM44.8342 20.1063C39.3434 21.1906 31.7612 20.9679 22.6698 16.4222C14.1703 12.1725 7.40547 12.226 2.84302 13.2399C2.60752 13.2922 2.37757 13.3471 2.15317 13.4044C1.55583 14.7035 1.07902 16.0696 0.736897 17.4881C1.1023 17.3905 1.47988 17.2978 1.86946 17.2111C7.40451 15.9811 15.2251 16.0345 24.6767 20.7604C33.1763 25.0102 39.9411 24.9566 44.5036 23.9427C44.6599 23.9081 44.8139 23.8722 44.9654 23.8351C44.982 23.4814 44.9903 23.1254 44.9903 22.7675C44.9903 21.8671 44.9374 20.9791 44.8342 20.1063ZM44.2328 28.5706C38.7952 29.5212 31.4338 29.1563 22.6698 24.7744C14.1703 20.5247 7.40547 20.5782 2.84302 21.5921C1.83029 21.8171 0.919256 22.0912 0.115592 22.3805C0.113401 22.5092 0.112305 22.6382 0.112305 22.7675C0.112305 35.1602 10.1586 45.2065 22.5513 45.2065C32.9373 45.2065 41.6753 38.1504 44.2328 28.5706Z" fill="var(--fill-0, white)" fill-opacity="0.16"/>
</g>
</svg>
